<svg width="200" height="200" xmlns="http://www.w3.org/2000/svg">
 <!-- Created with Method Draw - http://github.com/duopixel/Method-Draw/ -->

 <g>
  <title>background</title>
  <rect fill="#0c98e2" id="canvas_background" height="202" width="202" y="-1" x="-1"/>
  <g display="none" overflow="visible" y="0" x="0" height="100%" width="100%" id="canvasGrid">
   <rect fill="url(#gridpattern)" stroke-width="0" y="0" x="0" height="100%" width="100%"/>
  </g>
 </g>
 <g>
  <title>Layer 1</title>
  <g id="svg_42">
   <g transform="matrix(0.15675732563981004,0,0,0.15675732563981004,0,0) " id="svg_5">
    <g id="svg_6">
     <g id="svg_7">
      <path id="svg_8" fill="#010002" d="m2456.99335,1481.44699l-1.294,0c-16.588,0 -30.113,13.568 -30.113,30.113l0,131.107c0,16.61 13.525,30.134 30.113,30.134l1.316,0c16.588,0 30.113,-13.568 30.113,-30.134l0,-131.108c-0.022,-16.544 -13.568,-30.112 -30.135,-30.112z"/>
      <path id="svg_9" fill="#010002" d="m2501.53735,1693.27199c0,15.229 12.446,27.632 27.675,27.632l29.574,0l0,70.817c0,16.631 13.568,30.156 30.113,30.156l1.294,0c16.61,0 30.156,-13.546 30.156,-30.156l0,-70.817l41.33,0l0,70.817c0,16.631 13.611,30.156 30.156,30.156l1.273,0c16.609,0 30.134,-13.546 30.134,-30.156l0,-70.817l29.595,0c15.207,0 27.654,-12.403 27.654,-27.632l0,-207.015l-278.954,0l0,207.015z"/>
      <path id="svg_10" fill="#010002" d="m2710.49335,1360.71499l23.491,-36.26c1.51,-2.287 0.841,-5.414 -1.467,-6.903c-2.286,-1.51 -5.414,-0.884 -6.903,1.467l-24.353,37.512c-18.27,-7.485 -38.676,-11.691 -60.226,-11.691c-21.571,0 -41.934,4.206 -60.247,11.691l-24.31,-37.512c-1.488,-2.351 -4.638,-2.977 -6.946,-1.467c-2.308,1.488 -2.977,4.616 -1.467,6.903l23.512,36.26c-42.387,20.773 -70.968,59.924 -70.968,104.834c0,2.761 0.173,5.479 0.41,8.175l280.053,0c0.237,-2.696 0.388,-5.414 0.388,-8.175c0.001,-44.91 -28.602,-84.061 -70.967,-104.834zm-134.386,64.928c-7.442,0 -13.482,-5.997 -13.482,-13.46c0,-7.463 6.04,-13.439 13.482,-13.439c7.485,0 13.482,5.975 13.482,13.439s-6.04,13.46 -13.482,13.46zm129.835,0c-7.442,0 -13.482,-5.997 -13.482,-13.46c0,-7.463 6.04,-13.439 13.482,-13.439c7.463,0 13.46,5.975 13.46,13.439c0,7.463 -5.997,13.46 -13.46,13.46z"/>
      <path id="svg_11" fill="#010002" d="m2826.32835,1481.44699l-1.251,0c-16.588,0 -30.156,13.568 -30.156,30.113l0,131.107c0,16.61 13.59,30.134 30.156,30.134l1.273,0c16.609,0 30.113,-13.568 30.113,-30.134l0,-131.108c0,-16.544 -13.547,-30.112 -30.135,-30.112z"/>
     </g>
    </g>
    <g id="svg_12"/>
    <g id="svg_13"/>
    <g id="svg_14"/>
    <g id="svg_15"/>
    <g id="svg_16"/>
    <g id="svg_17"/>
    <g id="svg_18"/>
    <g id="svg_19"/>
    <g id="svg_20"/>
    <g id="svg_21"/>
    <g id="svg_22"/>
    <g id="svg_23"/>
    <g id="svg_24"/>
    <g id="svg_25"/>
    <g id="svg_26"/>
   </g>
   <g transform="matrix(0.15675732563981004,0,0,0.15675732563981004,0,0) " id="svg_27"/>
   <g transform="matrix(0.15675732563981004,0,0,0.15675732563981004,0,0) " id="svg_28"/>
   <g transform="matrix(0.15675732563981004,0,0,0.15675732563981004,0,0) " id="svg_29"/>
   <g transform="matrix(0.15675732563981004,0,0,0.15675732563981004,0,0) " id="svg_30"/>
   <g transform="matrix(0.15675732563981004,0,0,0.15675732563981004,0,0) " id="svg_31"/>
   <g transform="matrix(0.15675732563981004,0,0,0.15675732563981004,0,0) " id="svg_32"/>
   <g transform="matrix(0.15675732563981004,0,0,0.15675732563981004,0,0) " id="svg_33"/>
   <g transform="matrix(0.15675732563981004,0,0,0.15675732563981004,0,0) " id="svg_34"/>
   <g transform="matrix(0.15675732563981004,0,0,0.15675732563981004,0,0) " id="svg_35"/>
   <g transform="matrix(0.15675732563981004,0,0,0.15675732563981004,0,0) " id="svg_36"/>
   <g transform="matrix(0.15675732563981004,0,0,0.15675732563981004,0,0) " id="svg_37"/>
   <g transform="matrix(0.15675732563981004,0,0,0.15675732563981004,0,0) " id="svg_38"/>
   <g transform="matrix(0.15675732563981004,0,0,0.15675732563981004,0,0) " id="svg_39"/>
   <g transform="matrix(0.15675732563981004,0,0,0.15675732563981004,0,0) " id="svg_40"/>
   <g transform="matrix(0.15675732563981004,0,0,0.15675732563981004,0,0) " id="svg_41"/>
  </g>
  <g stroke="null" id="svg_84">
   <g stroke="null" transform="matrix(0.19951504910778242,0,0,0.17274254061357602,-1011.7994018629058,-856.2040286466329) " id="svg_47">
    <g stroke="null" id="svg_48">
     <g stroke="null" id="svg_49">
      <path stroke="null" id="svg_50" fill="#010002" d="m5399.57443,5428.5075l-1.294,0c-16.588,0 -30.113,13.568 -30.113,30.113l0,131.107c0,16.61 13.525,30.134 30.113,30.134l1.316,0c16.588,0 30.113,-13.568 30.113,-30.134l0,-131.108c-0.022,-16.544 -13.568,-30.112 -30.135,-30.112z"/>
      <path stroke="null" id="svg_51" fill="#010002" d="m5444.11843,5640.3325c0,15.229 12.446,27.632 27.675,27.632l29.574,0l0,70.817c0,16.631 13.568,30.156 30.113,30.156l1.294,0c16.61,0 30.156,-13.546 30.156,-30.156l0,-70.817l41.33,0l0,70.817c0,16.631 13.611,30.156 30.156,30.156l1.273,0c16.609,0 30.134,-13.546 30.134,-30.156l0,-70.817l29.595,0c15.207,0 27.654,-12.403 27.654,-27.632l0,-207.015l-278.954,0l0,207.015z"/>
      <path stroke="null" id="svg_52" fill="#010002" d="m5653.07443,5307.7755l23.491,-36.26c1.51,-2.287 0.841,-5.414 -1.467,-6.903c-2.286,-1.51 -5.414,-0.884 -6.903,1.467l-24.353,37.512c-18.27,-7.485 -38.676,-11.691 -60.226,-11.691c-21.571,0 -41.934,4.206 -60.247,11.691l-24.31,-37.512c-1.488,-2.351 -4.638,-2.977 -6.946,-1.467c-2.308,1.488 -2.977,4.616 -1.467,6.903l23.512,36.26c-42.387,20.773 -70.968,59.924 -70.968,104.834c0,2.761 0.173,5.479 0.41,8.175l280.053,0c0.237,-2.696 0.388,-5.414 0.388,-8.175c0.001,-44.91 -28.602,-84.061 -70.967,-104.834zm-134.386,64.928c-7.442,0 -13.482,-5.997 -13.482,-13.46c0,-7.463 6.04,-13.439 13.482,-13.439c7.485,0 13.482,5.975 13.482,13.439s-6.04,13.46 -13.482,13.46zm129.835,0c-7.442,0 -13.482,-5.997 -13.482,-13.46c0,-7.463 6.04,-13.439 13.482,-13.439c7.463,0 13.46,5.975 13.46,13.439c0,7.463 -5.997,13.46 -13.46,13.46z"/>
      <path stroke="null" id="svg_53" fill="#010002" d="m5768.90943,5428.5075l-1.251,0c-16.588,0 -30.156,13.568 -30.156,30.113l0,131.107c0,16.61 13.59,30.134 30.156,30.134l1.273,0c16.609,0 30.113,-13.568 30.113,-30.134l0,-131.108c0,-16.544 -13.547,-30.112 -30.135,-30.112z"/>
     </g>
    </g>
    <g stroke="null" id="svg_54"/>
    <g stroke="null" id="svg_55"/>
    <g stroke="null" id="svg_56"/>
    <g stroke="null" id="svg_57"/>
    <g stroke="null" id="svg_58"/>
    <g stroke="null" id="svg_59"/>
    <g stroke="null" id="svg_60"/>
    <g stroke="null" id="svg_61"/>
    <g stroke="null" id="svg_62"/>
    <g stroke="null" id="svg_63"/>
    <g stroke="null" id="svg_64"/>
    <g stroke="null" id="svg_65"/>
    <g stroke="null" id="svg_66"/>
    <g stroke="null" id="svg_67"/>
    <g stroke="null" id="svg_68"/>
   </g>
   <g stroke="null" transform="matrix(0.19951504910778242,0,0,0.17274254061357602,-1011.7994018629058,-856.2040286466329) " id="svg_69"/>
   <g stroke="null" transform="matrix(0.19951504910778242,0,0,0.17274254061357602,-1011.7994018629058,-856.2040286466329) " id="svg_70"/>
   <g stroke="null" transform="matrix(0.19951504910778242,0,0,0.17274254061357602,-1011.7994018629058,-856.2040286466329) " id="svg_71"/>
   <g stroke="null" transform="matrix(0.19951504910778242,0,0,0.17274254061357602,-1011.7994018629058,-856.2040286466329) " id="svg_72"/>
   <g stroke="null" transform="matrix(0.19951504910778242,0,0,0.17274254061357602,-1011.7994018629058,-856.2040286466329) " id="svg_73"/>
   <g stroke="null" transform="matrix(0.19951504910778242,0,0,0.17274254061357602,-1011.7994018629058,-856.2040286466329) " id="svg_74"/>
   <g stroke="null" transform="matrix(0.19951504910778242,0,0,0.17274254061357602,-1011.7994018629058,-856.2040286466329) " id="svg_75"/>
   <g stroke="null" transform="matrix(0.19951504910778242,0,0,0.17274254061357602,-1011.7994018629058,-856.2040286466329) " id="svg_76"/>
   <g stroke="null" transform="matrix(0.19951504910778242,0,0,0.17274254061357602,-1011.7994018629058,-856.2040286466329) " id="svg_77"/>
   <g stroke="null" transform="matrix(0.19951504910778242,0,0,0.17274254061357602,-1011.7994018629058,-856.2040286466329) " id="svg_78"/>
   <g stroke="null" transform="matrix(0.19951504910778242,0,0,0.17274254061357602,-1011.7994018629058,-856.2040286466329) " id="svg_79"/>
   <g stroke="null" transform="matrix(0.19951504910778242,0,0,0.17274254061357602,-1011.7994018629058,-856.2040286466329) " id="svg_80"/>
   <g stroke="null" transform="matrix(0.19951504910778242,0,0,0.17274254061357602,-1011.7994018629058,-856.2040286466329) " id="svg_81"/>
   <g stroke="null" transform="matrix(0.19951504910778242,0,0,0.17274254061357602,-1011.7994018629058,-856.2040286466329) " id="svg_82"/>
   <g stroke="null" transform="matrix(0.19951504910778242,0,0,0.17274254061357602,-1011.7994018629058,-856.2040286466329) " id="svg_83"/>
  </g>
 </g>
</svg>