<svg width="210" height="200" xmlns="http://www.w3.org/2000/svg">
 <!-- Created with Method Draw - http://github.com/duopixel/Method-Draw/ -->
 <defs>
  <filter id="svg_103_blur">
   <feGaussianBlur stdDeviation="0" in="SourceGraphic"/>
  </filter>
 </defs>
 <g>
  <title>background</title>
  <rect fill="#fff" id="canvas_background" height="202" width="212" y="-1" x="-1"/>
  <g display="none" overflow="visible" y="0" x="0" height="100%" width="100%" id="canvasGrid">
   <rect fill="url(#gridpattern)" stroke-width="0" y="0" x="0" height="100%" width="100%"/>
  </g>
 </g>
 <g>
  <title>Layer 1</title>
  <rect stroke="null" id="svg_104" height="203.00001" width="219.00001" y="0" x="-1" stroke-width="1.5" fill="#0c98e2"/>
  <g filter="url(#svg_103_blur)" stroke="null" id="svg_103">
   <g stroke="null" id="svg_93" transform="matrix(2.2523162088373687,0,0,2.272151929942531,60.92235341458314,539.9006118251815) ">
    <g stroke="null" id="svg_94">
     <path stroke="null" id="svg_95" fill="#000000" d="m49.4908,-171.73342l-3,0l0,-32l-2,0l0,32l-50,0l0,-33l5,0l0,1l-3,0c-0.553,0 -1,0.447 -1,1l0,29c0,0.553 0.447,1 1,1l46,0c0.553,0 1,-0.447 1,-1l0,-29l-2,0l0,28l-44,0l0,-27l2,0l0,6c0,0.553 0.447,1 1,1l14,0c0.553,0 1,-0.447 1,-1l0,-6l9,0l0,-2l-9,0l0,-1l9,0l0,-2l-9,0l0,-3c0,-0.553 -0.447,-1 -1,-1l-14,0c-0.553,0 -1,0.447 -1,1l0,3l-6,0c-0.553,0 -1,0.447 -1,1l0,34l-3,0c-0.553,0 -1,0.447 -1,1l0,4c0,1.654 1.346,3 3,3l56,0c1.654,0 3,-1.346 3,-3l0,-4c0,-0.553 -0.447,-1 -1,-1zm-48,-37l12,0l0,12l-12,0l0,-12zm47,42c0,0.552 -0.448,1 -1,1l-56,0c-0.552,0 -1,-0.448 -1,-1l0,-3l58,0l0,3z"/>
     <path stroke="null" id="svg_96" fill="#000000" d="m25.4908,-210.73342l1.466,0c0.176,0.559 0.4,1.1 0.673,1.619l-1.038,1.038c-0.391,0.391 -0.391,1.023 0,1.414l2.828,2.828c0.391,0.391 1.023,0.391 1.414,0l1.038,-1.038c0.52,0.272 1.061,0.497 1.619,0.673l0,1.466c0,0.553 0.447,1 1,1l4,0c0.553,0 1,-0.447 1,-1l0,-1.466c0.559,-0.176 1.1,-0.4 1.619,-0.673l1.038,1.038c0.391,0.391 1.023,0.391 1.414,0l2.828,-2.828c0.391,-0.391 0.391,-1.023 0,-1.414l-1.038,-1.038c0.272,-0.52 0.497,-1.061 0.673,-1.619l1.466,0c0.553,0 1,-0.447 1,-1l0,-4c0,-0.553 -0.447,-1 -1,-1l-1.466,0c-0.176,-0.559 -0.4,-1.1 -0.673,-1.619l1.038,-1.038c0.391,-0.391 0.391,-1.023 0,-1.414l-2.828,-2.828c-0.391,-0.391 -1.023,-0.391 -1.414,0l-1.038,1.038c-0.519,-0.273 -1.06,-0.497 -1.619,-0.673l0,-1.466c0,-0.553 -0.447,-1 -1,-1l-4,0c-0.553,0 -1,0.447 -1,1l0,1.466c-0.559,0.176 -1.1,0.4 -1.619,0.673l-1.038,-1.038c-0.391,-0.391 -1.023,-0.391 -1.414,0l-2.828,2.828c-0.391,0.391 -0.391,1.023 0,1.414l1.038,1.038c-0.273,0.519 -0.497,1.06 -0.673,1.619l-1.466,0c-0.553,0 -1,0.447 -1,1l0,4c0,0.553 0.447,1 1,1zm1,-4l1.23,0c0.467,0 0.871,-0.323 0.975,-0.778c0.2,-0.877 0.546,-1.709 1.027,-2.474c0.249,-0.396 0.191,-0.91 -0.139,-1.24l-0.872,-0.872l1.414,-1.414l0.872,0.872c0.331,0.332 0.846,0.388 1.24,0.139c0.765,-0.481 1.597,-0.827 2.474,-1.027c0.456,-0.104 0.779,-0.509 0.779,-0.976l0,-1.23l2,0l0,1.23c0,0.467 0.323,0.871 0.778,0.975c0.877,0.2 1.709,0.546 2.474,1.027c0.395,0.249 0.909,0.193 1.24,-0.139l0.872,-0.872l1.414,1.414l-0.872,0.872c-0.33,0.33 -0.388,0.845 -0.139,1.24c0.481,0.765 0.827,1.597 1.027,2.474c0.104,0.456 0.509,0.779 0.976,0.779l1.23,0l0,2l-1.23,0c-0.467,0 -0.871,0.323 -0.975,0.778c-0.2,0.877 -0.546,1.709 -1.027,2.474c-0.249,0.396 -0.191,0.91 0.139,1.24l0.872,0.872l-1.414,1.414l-0.872,-0.872c-0.331,-0.331 -0.846,-0.388 -1.24,-0.139c-0.765,0.481 -1.597,0.827 -2.474,1.027c-0.456,0.104 -0.779,0.509 -0.779,0.976l0,1.23l-2,0l0,-1.23c0,-0.467 -0.323,-0.871 -0.778,-0.975c-0.877,-0.2 -1.709,-0.546 -2.474,-1.027c-0.395,-0.249 -0.909,-0.192 -1.24,0.139l-0.872,0.872l-1.414,-1.414l0.872,-0.872c0.33,-0.33 0.388,-0.845 0.139,-1.24c-0.481,-0.765 -0.827,-1.597 -1.027,-2.474c-0.104,-0.456 -0.509,-0.779 -0.976,-0.779l-1.23,0l0,-2z"/>
     <path stroke="null" id="svg_97" fill="#000000" d="m36.4908,-206.73342c3.859,0 7,-3.141 7,-7s-3.141,-7 -7,-7s-7,3.141 -7,7s3.141,7 7,7zm0,-12c2.757,0 5,2.243 5,5s-2.243,5 -5,5s-5,-2.243 -5,-5s2.243,-5 5,-5z"/>
     <path stroke="null" id="svg_98" fill="#000000" d="m40.4908,-191.73342l0,-2l-1.08,0c-0.17,-1.183 -0.636,-2.269 -1.322,-3.184l0.766,-0.766l-1.414,-1.414l-0.766,0.766c-0.915,-0.686 -2.001,-1.152 -3.184,-1.322l0,-1.08l-2,0l0,1.08c-1.183,0.17 -2.269,0.636 -3.184,1.322l-0.766,-0.766l-1.414,1.414l0.766,0.766c-0.686,0.915 -1.152,2.001 -1.322,3.184l-1.08,0l0,2l1.08,0c0.17,1.183 0.636,2.269 1.322,3.184l-0.766,0.766l1.414,1.414l0.766,-0.766c0.915,0.686 2.001,1.151 3.184,1.322l0,1.08l2,0l0,-1.08c1.183,-0.17 2.269,-0.636 3.184,-1.322l0.766,0.766l1.414,-1.414l-0.766,-0.766c0.686,-0.915 1.151,-2.001 1.322,-3.184l1.08,0zm-3,-1c0,2.757 -2.243,5 -5,5s-5,-2.243 -5,-5s2.243,-5 5,-5s5,2.243 5,5z"/>
     <path stroke="null" id="svg_99" fill="#000000" d="m32.4908,-196.73342c-2.206,0 -4,1.794 -4,4s1.794,4 4,4s4,-1.794 4,-4s-1.794,-4 -4,-4zm0,6c-1.103,0 -2,-0.897 -2,-2s0.897,-2 2,-2s2,0.897 2,2s-0.897,2 -2,2z"/>
     <path stroke="null" id="svg_100" fill="#000000" d="m14.4908,-192.73342l-14,0c-0.553,0 -1,0.447 -1,1l0,14c0,0.553 0.447,1 1,1l14,0c0.553,0 1,-0.447 1,-1l0,-14c0,-0.553 -0.447,-1 -1,-1zm-1,14l-12,0l0,-12l12,0l0,12z"/>
     <path stroke="null" id="svg_101" fill="#000000" d="m6.4158,-200.50042l-2.125,-2.833l-1.6,1.2l3,4c0.19,0.253 0.486,0.4 0.8,0.4c0.014,0 0.028,0 0.042,-0.001c0.33,-0.014 0.631,-0.189 0.806,-0.469l5,-8l-1.695,-1.061l-4.228,6.764z"/>
     <path stroke="null" id="svg_102" fill="#000000" d="m4.1978,-180.02642l3.293,-3.293l3.293,3.293l1.414,-1.414l-3.293,-3.293l3.293,-3.293l-1.414,-1.414l-3.293,3.293l-3.293,-3.293l-1.414,1.414l3.293,3.293l-3.293,3.293l1.414,1.414z"/>
    </g>
   </g>
  </g>
 </g>
</svg>